# xmcd
#
# Track frame offsets:
# 150
# 17910
# 35425
# 52850
#
# Disc length: 908 seconds
#
#
# Revision: 4
# Processed by: cddbd v1.5.1PL0 Copyright (c) Steve Scherf et al.
# Submitted via: FreeRIP 2.92 
#
DISCID=27038a04
DTITLE=Neil Diamond - The 1989 Neil Diamond UK Tour
DYEAR=1995
DGENRE=National Folk
TTITLE0=This Time
TTITLE1=Hooked On The Memory Of You
TTITLE2=Baby Can I Hold You
TTITLE3=Beautiful Noise
EXTD=YEAR: 1995
EXTT0=
EXTT1=
EXTT2=
EXTT3=
PLAYORDER=
